<!--?xml version="1.0" encoding="utf-8"?-->
<!-- Generator: Adobe Illustrator 18.1.1, SVG Export Plug-In . SVG Version: 6.00 Build 0)  -->

<svg version="1.1" id="_x32_" xmlns="http://www.w3.org/2000/svg" xmlns:xlink="http://www.w3.org/1999/xlink" x="0px" y="0px" viewBox="0 0 512 512" style="width: 256px; height: 256px; opacity: 1;" xml:space="preserve">
<style type="text/css">
	.st0{fill:#4B4B4B;}
</style>
<g>
	<path class="st0" d="M254.261,206.307c32.63,0,59.091-26.448,59.091-59.09S286.891,88.11,254.261,88.11
		c-32.638,0-59.099,26.464-59.099,59.107S221.622,206.307,254.261,206.307z" style="fill: rgb(0, 0, 0);"></path>
	<path class="st0" d="M383.671,4.354c-5.163-5.538-13.84-5.829-19.37-0.666c-5.534,5.162-13.045,30.827-12.991,30.878
		c0.05,0.049,26.165-5.696,31.694-10.86C388.542,18.544,388.833,9.883,383.671,4.354z" style="fill: rgb(0, 0, 0);"></path>
	<path class="st0" d="M352.989,85.802c6.4-3.13,9.056-10.85,5.929-17.262c-3.134-6.403-10.863-9.052-17.262-5.929
		c-6.404,3.131-20.235,24.183-20.206,24.25C321.474,86.919,346.585,88.942,352.989,85.802z" style="fill: rgb(0, 0, 0);"></path>
	<path class="st0" d="M324.734,29.252c3.756-8.344,0.033-18.154-8.31-21.9c-8.352-3.765-18.149-0.042-21.909,8.302
		c-3.748,8.344-0.129,40.479-0.046,40.512C294.552,56.199,320.987,37.587,324.734,29.252z" style="fill: rgb(0, 0, 0);"></path>
	<path class="st0" d="M180.223,301.188v42.02c0,19.877,44.692,34.7,75.544,34.7c30.853,0,75.541-14.823,75.541-34.7v-42.02
		l141.83-158.434c9.86-10.826,9.086-27.589-1.732-37.448c-10.825-9.869-27.605-9.086-37.464,1.723l-105.844,91.184
		c-41.574,35.807-103.092,35.807-144.658,0L77.589,107.029c-9.863-10.809-26.634-11.592-37.46-1.723
		c-10.826,9.859-11.6,26.622-1.74,37.448L180.223,301.188z" style="fill: rgb(0, 0, 0);"></path>
	<path class="st0" d="M155.058,322.273c-1.07-1.599-7.428-0.5-16.908,6.345c-4.635,3.498-10.151,8.594-14.485,16.655
		c-4.364,7.911-6.899,19.519-3.885,31.452c2.877,11.95,10.526,22.808,20.04,31.419c9.572,8.66,21.084,15.581,33.646,20.984
		c25.173,10.809,54.644,16.138,85.358,15.789c30.72-0.383,60.14-6.395,85.051-18.253c12.411-5.962,23.758-13.432,32.835-23.009
		c9.052-9.426,15.68-21.726,16.621-34.184c1.099-12.44-3.364-23.224-8.56-30.31c-5.23-7.27-11.059-11.709-15.906-14.84
		c-9.896-5.996-16.246-6.828-17.245-5.155c-1.158,1.874,3.176,6.304,9.493,14.057c6.029,7.552,14.406,20.11,10.983,33.3
		c-2.781,13.033-18.536,26.364-39.596,34.634c-21.035,8.502-46.887,13.149-74.03,13.448c-27.172,0.334-53.123-3.689-74.637-11.424
		c-21.435-7.545-38.439-19.844-43.539-32.66c-5.588-12.766,0.82-25.681,6.295-33.659C152.185,328.701,156.34,324.08,155.058,322.273
		z" style="fill: rgb(0, 0, 0);"></path>
	<path class="st0" d="M468.959,346.472c-7.928-11.749-16.962-19.453-24.574-24.948c-15.497-10.767-25.54-13.432-26.497-11.8
		c-1.208,1.924,6.828,8.169,18.744,20.694c5.82,6.312,12.574,14.372,17.704,24.64c5.096,10.193,8.16,22.7,5.596,35.782
		c-2.398,13.024-10.65,26.198-23.175,37.54c-12.499,11.425-28.862,21.084-47.249,28.862
		c-36.927,15.555-81.895,23.832-129.052,24.416c-47.191,0.516-92.316-6.678-129.965-20.843
		c-18.786-7.078-35.661-15.997-49.197-26.565c-13.536-10.517-23.466-22.891-27.959-35.549c-4.622-12.633-3.714-25.365-0.025-35.948
		c3.66-10.676,9.601-19.278,14.852-25.973c10.821-13.34,18.612-19.952,17.267-21.834c-1.012-1.532-11.001,1.549-25.707,13.574
		c-7.166,6.137-15.622,14.756-22.017,27.63c-6.424,12.658-9.847,30.512-4.884,48.774c4.756,18.278,16.926,35.116,32.361,48.622
		c15.518,13.624,34.328,24.566,54.943,33.21c41.316,17.245,89.951,25.748,140.686,25.223c50.734-0.667,99.27-10.318,140.064-29.229
		c20.327-9.494,38.797-21.393,53.429-36.34c14.572-14.764,25.073-33.584,26.864-52.603
		C483.198,374.785,476.77,358.005,468.959,346.472z" style="fill: rgb(0, 0, 0);"></path>
</g>
</svg>
