<?xml version="1.0" encoding="UTF-8" standalone="no"?>
<!-- Created with Inkscape (http://www.inkscape.org/) -->

<svg
   version="1.1"
   id="svg2"
   width="5164"
   height="5164"
   viewBox="0 0 5164 5164"
   sodipodi:docname="vecteezy_army-ship-icon-style_8329203.eps"
   xmlns:inkscape="http://www.inkscape.org/namespaces/inkscape"
   xmlns:sodipodi="http://sodipodi.sourceforge.net/DTD/sodipodi-0.dtd"
   xmlns="http://www.w3.org/2000/svg"
   xmlns:svg="http://www.w3.org/2000/svg">
  <defs
     id="defs6" />
  <sodipodi:namedview
     id="namedview4"
     pagecolor="#ffffff"
     bordercolor="#000000"
     borderopacity="0.25"
     inkscape:showpageshadow="2"
     inkscape:pageopacity="0.0"
     inkscape:pagecheckerboard="0"
     inkscape:deskcolor="#d1d1d1" />
  <g
     id="g8"
     inkscape:groupmode="layer"
     inkscape:label="ink_ext_XXXXXX"
     transform="matrix(1.3333333,0,0,-1.3333333,0,5164)">
    <g
       id="g10"
       transform="scale(0.1)">
      <path
         d="m 36348,11919 c -1280,0 -1927,300 -2551,590 -572,266 -1113,516 -2217,516 -1104,0 -1644,-251 -2216,-516 -626,-290 -1272,-590 -2552,-590 -1280,0 -1926,300 -2551,590 -572,266 -1112,516 -2216,516 -1104,0 -1644,-251 -2217,-516 -625,-290 -1272,-590 -2551,-590 -1279,0 -1926,300 -2551,590 -572,266 -1113,516 -2217,516 -1104,0 -1643,-251 -2216,-516 -626,-290 -1272,-590 -2551,-590 -1279,0 -1927,300 -2551,590 -572,266 -1113,516 -2217,516 -220,0 -398,178 -398,398 0,220 178,398 398,398 1280,0 1927,-300 2551,-590 572,-266 1113,-516 2217,-516 1104,0 1644,251 2216,516 626,290 1272,590 2551,590 1280,0 1927,-300 2552,-590 571,-266 1112,-516 2216,-516 1104,0 1644,251 2216,516 626,290 1272,590 2552,590 1280,0 1926,-300 2551,-590 572,-266 1113,-516 2216,-516 1104,0 1644,251 2217,516 626,290 1272,590 2551,590 1279,0 1927,-300 2551,-590 572,-266 1113,-516 2217,-516 220,0 398,-178 398,-398 0,-219 -178,-398 -398,-398 v 0"
         style="fill:#100f0d;fill-opacity:1;fill-rule:evenodd;stroke:none"
         id="path12" />
      <path
         d="m 36348,9471 c -1280,0 -1927,300 -2551,589 -572,266 -1113,516 -2217,516 -1104,0 -1644,-251 -2216,-516 -626,-289 -1272,-589 -2552,-589 -1280,0 -1926,300 -2551,589 -572,266 -1112,516 -2216,516 -1104,0 -1644,-251 -2217,-516 -625,-289 -1272,-589 -2551,-589 -1279,0 -1926,299 -2551,589 -572,266 -1113,516 -2217,516 -1104,0 -1643,-251 -2216,-516 -626,-289 -1272,-589 -2551,-589 -1279,0 -1927,300 -2551,589 -572,266 -1113,516 -2217,516 -220,0 -398,178 -398,398 0,220 178,398 398,398 1280,0 1927,-300 2551,-590 572,-266 1113,-515 2217,-515 1104,0 1644,250 2216,515 626,290 1272,590 2551,590 1280,0 1927,-300 2552,-590 571,-266 1112,-515 2216,-515 1104,0 1644,250 2216,515 626,290 1272,590 2552,590 1280,0 1926,-300 2551,-590 572,-266 1113,-515 2216,-515 1104,0 1644,250 2217,515 626,290 1272,590 2551,590 1279,0 1927,-300 2551,-590 572,-266 1113,-515 2217,-515 220,0 398,-178 398,-398 0,-220 -178,-398 -398,-398 v 0"
         style="fill:#100f0d;fill-opacity:1;fill-rule:evenodd;stroke:none"
         id="path14" />
      <path
         d="m 18378,19226 c -56,0 -113,12 -166,36 -199,93 -287,329 -194,529 l 2339,5056 c 147,319 470,526 823,526 h 9113 c 352,0 675,-206 822,-526 l 2339,-5054 c 92,-199 5,-436 -195,-529 -199,-92 -436,-6 -529,194 l -2338,5055 c -19,39 -58,65 -100,65 h -9112 c -43,0 -82,-25 -99,-64 l -2339,-5056 c -69,-146 -213,-232 -364,-232 v 0"
         style="fill:#100f0d;fill-opacity:1;fill-rule:evenodd;stroke:none"
         id="path16" />
      <path
         d="M 31853,21902 H 19615 c -220,0 -398,177 -398,398 0,220 178,397 398,397 h 12238 c 220,0 398,-177 398,-397 0,-221 -178,-398 -398,-398 v 0"
         style="fill:#100f0d;fill-opacity:1;fill-rule:evenodd;stroke:none"
         id="path18" />
      <path
         d="m 26814,24577 c -220,0 -398,178 -398,398 v 2400 c 0,220 178,398 398,398 220,0 398,-178 398,-398 v -2400 c -1,-220 -179,-398 -398,-398"
         style="fill:#100f0d;fill-opacity:1;fill-rule:evenodd;stroke:none"
         id="path20" />
      <path
         d="m 24656,24577 c -220,0 -398,178 -398,398 v 2400 c 0,220 178,398 398,398 220,0 398,-178 398,-398 v -2400 c 0,-220 -178,-398 -398,-398"
         style="fill:#100f0d;fill-opacity:1;fill-rule:evenodd;stroke:none"
         id="path22" />
      <path
         d="m 27268,26976 h -3066 c -344,0 -625,280 -625,625 v 1035 c 0,345 280,625 625,625 h 3066 c 344,0 625,-280 625,-624 v -1035 c -1,-346 -280,-627 -625,-626 z m -2896,796 h 2724 v 693 h -2724 z m 2896,692 v 0 0"
         style="fill:#100f0d;fill-opacity:1;fill-rule:evenodd;stroke:none"
         id="path24" />
      <path
         d="M 34915,15201 H 4393 c -220,0 -398,178 -398,398 0,220 178,398 398,398 h 30522 c 221,0 398,-178 398,-398 0,-220 -178,-398 -398,-398 v 0"
         style="fill:#100f0d;fill-opacity:1;fill-rule:evenodd;stroke:none"
         id="path26" />
      <path
         d="m 9132,17214 h -862 c -220,0 -398,178 -398,398 0,221 178,398 398,398 h 863 c 220,0 397,-177 397,-398 0,-220 -178,-398 -398,-398 v 0"
         style="fill:#100f0d;fill-opacity:1;fill-rule:evenodd;stroke:none"
         id="path28" />
      <path
         d="m 14612,17214 h -863 c -220,0 -398,178 -398,398 0,221 178,398 398,398 h 863 c 220,0 398,-177 398,-398 0,-220 -178,-398 -398,-398"
         style="fill:#100f0d;fill-opacity:1;fill-rule:evenodd;stroke:none"
         id="path30" />
      <path
         d="m 20091,17214 h -863 c -220,0 -398,178 -398,398 0,221 178,398 398,398 h 863 c 220,0 398,-177 398,-398 1,-220 -178,-398 -398,-398"
         style="fill:#100f0d;fill-opacity:1;fill-rule:evenodd;stroke:none"
         id="path32" />
      <path
         d="m 25572,17214 h -862 c -221,0 -398,178 -398,398 0,221 177,398 398,398 h 863 c 220,0 398,-177 398,-398 -1,-220 -179,-398 -399,-398"
         style="fill:#100f0d;fill-opacity:1;fill-rule:evenodd;stroke:none"
         id="path34" />
      <path
         d="m 31053,17214 h -863 c -220,0 -398,178 -398,398 0,221 178,398 398,398 h 863 c 220,0 398,-177 398,-398 0,-220 -178,-398 -398,-398 v 0"
         style="fill:#100f0d;fill-opacity:1;fill-rule:evenodd;stroke:none"
         id="path36" />
      <path
         d="m 33943,12472 c -44,0 -89,8 -133,24 -206,73 -315,301 -241,508 l 2214,6223 H 11020 c -171,0 -324,110 -378,273 l -499,1515 H 2863 l 2889,-8010 c 75,-206 -32,-435 -240,-509 -207,-76 -435,32 -510,239 l -2984,8273 c -65,186 -37,390 75,549 113,159 295,254 491,254 h 7700 c 262,0 492,-168 572,-418 l 452,-1372 h 24742 c 198,0 384,-97 497,-258 114,-162 142,-369 76,-555 l -2303,-6472 c -59,-162 -213,-264 -377,-264 z m 1929,7005 v 0 z m -25773,1670 c 1,-1 1,-2 1,-3 l -1,3"
         style="fill:#100f0d;fill-opacity:1;fill-rule:evenodd;stroke:none"
         id="path38" />
      <path
         d="m 7863,21015 c -220,0 -398,178 -398,398 v 1547 H 5405 v -1547 c 0,-220 -178,-398 -398,-398 -220,0 -398,178 -398,398 v 1800 c 0,299 243,543 544,543 h 2565 c 300,0 544,-244 544,-543 v -1800 c 0,-220 -179,-398 -399,-398 v 0"
         style="fill:#100f0d;fill-opacity:1;fill-rule:evenodd;stroke:none"
         id="path40" />
      <path
         d="M 5007,22443 H 3255 c -220,0 -398,177 -398,398 0,220 178,398 398,398 h 1752 c 220,0 398,-178 398,-398 0,-221 -178,-398 -398,-398 v 0"
         style="fill:#100f0d;fill-opacity:1;fill-rule:evenodd;stroke:none"
         id="path42" />
    </g>
  </g>
</svg>
